<svg class="icon line" width="32" height="32" id="switch-double" xmlns="http://www.w3.org/2000/svg" viewBox="0 0 24 24"><path d="M14,6.5A3.44,3.44,0,0,0,15.06,9H5.5a2.5,2.5,0,1,1,0-5h9.56A3.44,3.44,0,0,0,14,6.5Zm7-.3A3.49,3.49,0,0,0,15.06,4a3.5,3.5,0,0,0,2.44,6A3.49,3.49,0,0,0,21,6.8a1.51,1.51,0,0,0,0-.3A1.51,1.51,0,0,0,21,6.2Z" style="fill: none; stroke: #FFFFFF; stroke-linecap: round; stroke-linejoin: round; stroke-width: 2px;"></path><path d="M10,17.5A3.44,3.44,0,0,0,8.94,15H18.5a2.5,2.5,0,1,1,0,5H8.94A3.44,3.44,0,0,0,10,17.5Zm-7,.3A3.49,3.49,0,0,0,8.94,20,3.5,3.5,0,0,0,6.5,14,3.49,3.49,0,0,0,3,17.2a2.26,2.26,0,0,0,0,.6Z" style="fill: none; stroke: #FFFFFF; stroke-linecap: round; stroke-linejoin: round; stroke-width: 2px;"></path></svg>