<svg class="icon line" width="32" height="32" id="moon-cloudy" xmlns="http://www.w3.org/2000/svg" viewBox="0 0 24 24"><path d="M13.78,10A5.08,5.08,0,0,0,14,8.5,5.5,5.5,0,0,0,8.5,3a5.34,5.34,0,0,0-1.45.2A3,3,0,1,1,3.2,7.05,5.34,5.34,0,0,0,3,8.5a5.51,5.51,0,0,0,4.37,5.39" style="fill: none; stroke: #FFFFFF; stroke-linecap: round; stroke-linejoin: round; stroke-width: 2px;"></path><path d="M17.67,11.8a2.76,2.76,0,0,0-.77.11A4.1,4.1,0,0,0,13.5,10a4.27,4.27,0,0,0-4.1,3.79,2.27,2.27,0,0,0-.9-.19A2.61,2.61,0,0,0,6,16.3,2.61,2.61,0,0,0,8.5,19h9.17A3.47,3.47,0,0,0,21,15.4,3.47,3.47,0,0,0,17.67,11.8Z" style="fill: none; stroke: #FFFFFF; stroke-linecap: round; stroke-linejoin: round; stroke-width: 2px;"></path></svg>