<svg class="icon line" width="32" height="32" id="settings-alt" xmlns="http://www.w3.org/2000/svg" viewBox="0 0 24 24"><path d="M19,8.69V6a1,1,0,0,0-1-1H15.31a1,1,0,0,1-.7-.29l-1.9-1.9a1,1,0,0,0-1.42,0l-1.9,1.9a1,1,0,0,1-.7.29H6A1,1,0,0,0,5,6V8.69a1,1,0,0,1-.29.7l-1.9,1.9a1,1,0,0,0,0,1.42l1.9,1.9a1,1,0,0,1,.29.7V18a1,1,0,0,0,1,1H8.69a1,1,0,0,1,.7.29l1.9,1.9a1,1,0,0,0,1.42,0l1.9-1.9a1,1,0,0,1,.7-.29H18a1,1,0,0,0,1-1V15.31a1,1,0,0,1,.29-.7l1.9-1.9a1,1,0,0,0,0-1.42l-1.9-1.9A1,1,0,0,1,19,8.69Z" style="fill: none; stroke: rgb(0, 0, 0); stroke-linecap: round; stroke-linejoin: round; stroke-width: 2px;"></path><circle cx="12" cy="12" r="3" style="fill: none; stroke: rgb(0, 0, 0); stroke-linecap: round; stroke-linejoin: round; stroke-width: 2px;"></circle></svg>